<svg id="Layer_1" data-name="Layer 1" xmlns="http://www.w3.org/2000/svg" viewBox="0 0 787.09 293.8">
    <defs>
        <style>
            .cls-1 {
                fill: #ffffff;
            }

            .cls-2 {
                fill: #ffffff;
            }

            .cls-3 {
                fill: #ffffff;
            }

            .cls-4 {
                fill: #ffffff;
            }

            .cls-5 {
                fill: #ffffff;
            }
        </style>
    </defs>
    <title>logo-style-1</title>
    <path class="cls-1" d="M324.43,215.23h9.4v84.93H370v9.08H324.43Z" transform="translate(-99 -208)" />
    <path class="cls-1"
        d="M429.66,212.86q21.34,0,35.74,14.26t14.39,35.08q0,20.64-14.36,35t-35,14.38q-20.91,0-35.3-14.31a47.08,47.08,0,0,1-14.39-34.64,50.11,50.11,0,0,1,6.56-25.12,48.4,48.4,0,0,1,42.37-24.67Zm.41,9.14a40.13,40.13,0,0,0-34.37,20.09,40.71,40.71,0,0,0-5.25,20.53,39.54,39.54,0,0,0,39.62,39.84,40.2,40.2,0,0,0,20.26-5.31,38,38,0,0,0,14.53-14.51,40.8,40.8,0,0,0,5.22-20.47,39.76,39.76,0,0,0-5.22-20.24,38.94,38.94,0,0,0-14.69-14.49A39.73,39.73,0,0,0,430.07,222Z"
        transform="translate(-99 -208)" />
    <path class="cls-1" d="M498.71,309.24v-94h2l62.57,72.06V215.23h9.26v94h-2.1l-62.06-71.19v71.19Z"
        transform="translate(-99 -208)" />
    <path class="cls-1"
        d="M595.46,309.24v-94H615q21.07,0,30.61,3.39a40.89,40.89,0,0,1,21.37,16.61q7.71,11.82,7.7,28.18,0,14.13-6.1,24.86a39,39,0,0,1-15.85,15.85q-9.74,5.11-27.32,5.12Zm9-8.89h10.87q19.49,0,27-2.42a31.21,31.21,0,0,0,16.68-12.42q6.08-9,6.07-21.94,0-13.59-6.58-23.24a33.16,33.16,0,0,0-18.34-13.22q-8.82-2.67-29.08-2.68h-6.65Z"
        transform="translate(-99 -208)" />
    <path class="cls-1"
        d="M737.63,212.86q21.35,0,35.74,14.26t14.39,35.08q0,20.64-14.36,35t-35,14.38q-20.91,0-35.3-14.31a47.08,47.08,0,0,1-14.39-34.64,50.11,50.11,0,0,1,6.56-25.12,48.4,48.4,0,0,1,42.37-24.67ZM738,222a38.67,38.67,0,0,0-19.78,5.44,39.08,39.08,0,0,0-14.59,14.65,40.71,40.71,0,0,0-5.25,20.53A39.54,39.54,0,0,0,738,302.46a40.2,40.2,0,0,0,20.26-5.31,38,38,0,0,0,14.53-14.51,40.8,40.8,0,0,0,5.22-20.47,39.76,39.76,0,0,0-5.22-20.24,38.94,38.94,0,0,0-14.69-14.49A39.73,39.73,0,0,0,738,222Z"
        transform="translate(-99 -208)" />
    <path class="cls-1" d="M806.68,309.24v-94h2l62.57,72.06V215.23h9.26v94h-2.11l-62.05-71.19v71.19Z"
        transform="translate(-99 -208)" />
    <g id="Layer_1-2" data-name="Layer 1-2">
        <path class="cls-2"
            d="M227.49,442.2,99,442V208h38.35a45.52,45.52,0,0,0-6.46,9,26.73,26.73,0,0,0-3.13,12.75l-.1,183.62H234S235.47,435.45,227.49,442.2Z"
            transform="translate(-99 -208)" />
        <path class="cls-3"
            d="M170.86,314.55v25.32h-9.93v-8.51a18.53,18.53,0,0,1,5-12.61l.85-.91A18.47,18.47,0,0,1,170.86,314.55Z"
            transform="translate(-99 -208)" />
        <path class="cls-4" d="M180.79,311.8v28.07h-9.93V314.55a18.17,18.17,0,0,1,7-2.4Z"
            transform="translate(-99 -208)" />
        <path class="cls-3"
            d="M149.8,208.73l128.5.2v234H240a45.52,45.52,0,0,0,6.46-9,26.81,26.81,0,0,0,3.13-12.74l.1-183.62H143.3S141.83,215.48,149.8,208.73Z"
            transform="translate(-99 -208)" />
        <path class="cls-3"
            d="M206.44,336.38V311.06h9.93v8.51a18.53,18.53,0,0,1-5,12.61l-.85.91A18.47,18.47,0,0,1,206.44,336.38Z"
            transform="translate(-99 -208)" />
        <path class="cls-4" d="M196.51,339.13V311.06h9.93v25.32a18.17,18.17,0,0,1-7,2.4Z"
            transform="translate(-99 -208)" />
    </g>
    <path class="cls-5" d="M324.24,344.54h47.22v9.22h-37.8v29.53h37.8v9.23h-37.8v46.25h-9.42Z"
        transform="translate(-99 -208)" />
    <path class="cls-5"
        d="M459,342.16q21.42,0,35.84,14.29t14.42,35.17q0,20.7-14.39,35.11t-35.1,14.41q-21,0-35.38-14.35a47.17,47.17,0,0,1-14.43-34.72,50.24,50.24,0,0,1,6.57-25.18A48.56,48.56,0,0,1,459,342.16Zm.42,9.17a38.79,38.79,0,0,0-19.83,5.45,39.19,39.19,0,0,0-14.63,14.68A40.77,40.77,0,0,0,419.67,392,39.64,39.64,0,0,0,459.39,432a40.32,40.32,0,0,0,20.31-5.32,38.18,38.18,0,0,0,14.56-14.55,40.89,40.89,0,0,0,5.23-20.52,39.83,39.83,0,0,0-5.23-20.29,39,39,0,0,0-14.72-14.52A39.79,39.79,0,0,0,459.39,351.33Z"
        transform="translate(-99 -208)" />
    <path class="cls-5"
        d="M544.63,421.22l8-4.81Q561.1,432,572.18,432a18.75,18.75,0,0,0,8.9-2.21,15.63,15.63,0,0,0,6.34-5.93A15.33,15.33,0,0,0,589.6,416a16,16,0,0,0-3.2-9.29q-4.42-6.27-16.15-15.11t-14.67-12.88a23.54,23.54,0,0,1-5-14.41,21.9,21.9,0,0,1,2.94-11.21,21,21,0,0,1,8.3-8,24,24,0,0,1,11.63-2.92,24.79,24.79,0,0,1,12.46,3.3q5.79,3.3,12.27,12.14l-7.69,5.83q-5.32-7-9.07-9.29a15.66,15.66,0,0,0-8.16-2.24,13,13,0,0,0-9.33,3.46,11.34,11.34,0,0,0-3.62,8.52,14.44,14.44,0,0,0,1.29,6,22,22,0,0,0,4.67,6.28q1.86,1.78,12.17,9.41,12.24,9,16.79,16.08a26,26,0,0,1,4.55,14.16A24,24,0,0,1,592,433.58a26.16,26.16,0,0,1-18.93,7.56,27.77,27.77,0,0,1-15.56-4.58Q550.52,432,544.63,421.22Z"
        transform="translate(-99 -208)" />
    <path class="cls-5" d="M636.6,353.76v-9.22h51.63v9.22h-21v85h-9.61v-85Z" transform="translate(-99 -208)" />
    <path class="cls-5" d="M728.12,344.54h54v9.22H737.53v29.53h44.2v9.23h-44.2v37h44.2v9.23H728.12Z"
        transform="translate(-99 -208)" />
    <path class="cls-5"
        d="M825.14,344.54h18.77q15.71,0,21.27,1.28a24.28,24.28,0,0,1,13.65,8.24,23.53,23.53,0,0,1,5.25,15.56,25.16,25.16,0,0,1-3.62,13.53A22.57,22.57,0,0,1,870.11,392q-6.72,3-18.57,3l33.88,43.75H873.77L839.88,395h-5.32v43.75h-9.42Zm9.42,9.22v32l16.23.13q9.44,0,14-1.79a14.57,14.57,0,0,0,7.06-5.74,15.91,15.91,0,0,0,2.53-8.81,15.24,15.24,0,0,0-2.56-8.61,14.31,14.31,0,0,0-6.74-5.54q-4.17-1.67-13.86-1.67Z"
        transform="translate(-99 -208)" />
    <path class="cls-5" d="M99,470.66h17.4v3H102v9.51h14.25v3H102v11.93h14.25v3H99Z" transform="translate(-99 -208)" />
    <path class="cls-5"
        d="M138.8,501l4.34-30.37h.5L156,495.58l12.23-24.92h.49L173.07,501h-3l-3-21.72L156.35,501h-.77l-10.87-21.88-3,21.88Z"
        transform="translate(-99 -208)" />
    <path class="cls-5"
        d="M197.53,470.66h6.05a34.14,34.14,0,0,1,7,.46,7.73,7.73,0,0,1,4.26,2.63,8.5,8.5,0,0,1,0,10,8,8,0,0,1-4.44,2.66,39.41,39.41,0,0,1-7.72.49h-2.17V501h-3Zm3,3v10.3l5.14.06a13.33,13.33,0,0,0,4.56-.57,4.57,4.57,0,0,0,2.27-1.83,5.07,5.07,0,0,0,.83-2.83,5,5,0,0,0-.83-2.79,4.54,4.54,0,0,0-2.17-1.81,13.37,13.37,0,0,0-4.43-.53Z"
        transform="translate(-99 -208)" />
    <path class="cls-5"
        d="M255.56,469.9a15.76,15.76,0,0,1,11.55,4.6,16,16,0,0,1-11.3,27.3,15.53,15.53,0,0,1-11.41-4.63A15.22,15.22,0,0,1,239.76,486a16.17,16.17,0,0,1,2.11-8.11,15.68,15.68,0,0,1,13.69-8Zm.13,3a13,13,0,0,0-11.1,6.49,13.17,13.17,0,0,0-1.7,6.63,12.79,12.79,0,0,0,12.8,12.88,13.05,13.05,0,0,0,6.55-1.72,12.22,12.22,0,0,0,4.69-4.69,13.11,13.11,0,0,0,1.69-6.61,12.8,12.8,0,0,0-1.69-6.54,12.53,12.53,0,0,0-4.74-4.68A12.88,12.88,0,0,0,255.69,472.85Z"
        transform="translate(-99 -208)" />
    <path class="cls-5"
        d="M294.65,470.66h3.12L304,492.55l8.7-21.89h.63l8.61,21.89,6.31-21.89h3.09L322.6,501H322l-9-23-9.19,23h-.56Z"
        transform="translate(-99 -208)" />
    <path class="cls-5" d="M355.5,470.66h17.4v3H358.54v9.51h14.24v3H358.54v11.93h14.24v3H355.5Z"
        transform="translate(-99 -208)" />
    <path class="cls-5"
        d="M396.83,470.66h6.05a36.12,36.12,0,0,1,6.86.42,7.86,7.86,0,0,1,4.4,2.65,7.64,7.64,0,0,1,1.69,5,8.1,8.1,0,0,1-1.17,4.36,7.32,7.32,0,0,1-3.33,2.84,15.29,15.29,0,0,1-6,1L416.26,501h-3.75l-10.92-14.1h-1.72V501h-3Zm3,3V484l5.23,0a12.88,12.88,0,0,0,4.5-.58,4.65,4.65,0,0,0,2.27-1.84,5.12,5.12,0,0,0,.82-2.84,4.86,4.86,0,0,0-.83-2.78,4.62,4.62,0,0,0-2.17-1.79,13.38,13.38,0,0,0-4.46-.53Z"
        transform="translate(-99 -208)" />
    <path class="cls-5" d="M440.87,470.66h17.41v3H443.91v9.51h14.24v3H443.91v11.93h14.24v3H440.87Z"
        transform="translate(-99 -208)" />
    <path class="cls-5"
        d="M482,501V470.66h6.3q6.81,0,9.89,1.1a13.17,13.17,0,0,1,6.9,5.37,16.28,16.28,0,0,1,2.49,9.1,15.91,15.91,0,0,1-2,8,12.61,12.61,0,0,1-5.12,5.12Q497.38,501,491.7,501Zm2.91-2.87h3.51q6.3,0,8.74-.78a10.1,10.1,0,0,0,5.39-4,12.42,12.42,0,0,0,2-7.09,13,13,0,0,0-2.13-7.51,10.73,10.73,0,0,0-5.93-4.27,36.17,36.17,0,0,0-9.39-.86H485Z"
        transform="translate(-99 -208)" />
    <path class="cls-5"
        d="M562.42,470.66h6.05a36,36,0,0,1,6.85.42,7.82,7.82,0,0,1,4.4,2.65,7.58,7.58,0,0,1,1.69,5,8.1,8.1,0,0,1-1.16,4.36,7.29,7.29,0,0,1-3.34,2.84,15.24,15.24,0,0,1-6,1L581.85,501h-3.76l-10.92-14.1h-1.71V501h-3Zm3,3V484l5.23,0a12.86,12.86,0,0,0,4.49-.58,4.67,4.67,0,0,0,2.28-1.84,5.2,5.2,0,0,0,.82-2.84,4.93,4.93,0,0,0-.83-2.78,4.66,4.66,0,0,0-2.17-1.79,13.49,13.49,0,0,0-4.47-.53Z"
        transform="translate(-99 -208)" />
    <path class="cls-5" d="M606.46,470.66h17.4v3H609.49v9.51h14.25v3H609.49v11.93h14.25v3H606.46Z"
        transform="translate(-99 -208)" />
    <path class="cls-5"
        d="M660,470.66,674.2,501h-3.28l-4.78-10H653.06l-4.73,10h-3.39l14.35-30.37Zm-.39,6.46-5.2,11h10.38Z"
        transform="translate(-99 -208)" />
    <path class="cls-5" d="M697.43,470.66h3V498.1h11.69V501H697.43Z" transform="translate(-99 -208)" />
    <path class="cls-5" d="M732.46,473.64v-3H749.1v3h-6.77V501h-3.09V473.64Z" transform="translate(-99 -208)" />
    <path class="cls-5"
        d="M786.46,469.9A15.76,15.76,0,0,1,798,474.5a16,16,0,0,1-11.3,27.3,15.52,15.52,0,0,1-11.4-4.63A15.19,15.19,0,0,1,770.66,486a16.18,16.18,0,0,1,2.12-8.11,15.37,15.37,0,0,1,5.77-5.85A15.56,15.56,0,0,1,786.46,469.9Zm.14,3a12.51,12.51,0,0,0-6.39,1.76,12.68,12.68,0,0,0-4.72,4.73A13.16,13.16,0,0,0,773.8,486a12.77,12.77,0,0,0,12.8,12.88,13,13,0,0,0,6.54-1.72,12.31,12.31,0,0,0,4.7-4.69,13.21,13.21,0,0,0,1.68-6.61,12.89,12.89,0,0,0-1.68-6.54,12.63,12.63,0,0,0-4.75-4.68A12.84,12.84,0,0,0,786.6,472.85Z"
        transform="translate(-99 -208)" />
    <path class="cls-5"
        d="M827.44,470.66h6a36.07,36.07,0,0,1,6.85.42,7.86,7.86,0,0,1,4.4,2.65,7.58,7.58,0,0,1,1.69,5,8.19,8.19,0,0,1-1.16,4.36,7.29,7.29,0,0,1-3.34,2.84,15.26,15.26,0,0,1-6,1L846.87,501h-3.76l-10.92-14.1h-1.72V501h-3Zm3,3V484l5.24,0a12.86,12.86,0,0,0,4.49-.58,4.72,4.72,0,0,0,2.28-1.84,5.19,5.19,0,0,0,.81-2.84,4.93,4.93,0,0,0-.82-2.78,4.64,4.64,0,0,0-2.18-1.79,13.38,13.38,0,0,0-4.46-.53Z"
        transform="translate(-99 -208)" />
    <path class="cls-5"
        d="M868.32,495.38l2.58-1.55c1.81,3.34,3.91,5,6.3,5a6,6,0,0,0,2.86-.72,5,5,0,0,0,2.05-1.91,4.89,4.89,0,0,0,.7-2.54,5.15,5.15,0,0,0-1-3,24.93,24.93,0,0,0-5.2-4.87,26.79,26.79,0,0,1-4.73-4.15,7.55,7.55,0,0,1-1.61-4.65,7,7,0,0,1,1-3.61,6.68,6.68,0,0,1,2.67-2.57,7.67,7.67,0,0,1,3.75-.94,7.94,7.94,0,0,1,4,1.06,13.77,13.77,0,0,1,4,3.92l-2.48,1.87a11.94,11.94,0,0,0-2.92-3,5.05,5.05,0,0,0-2.63-.72,4.19,4.19,0,0,0-3,1.11,3.65,3.65,0,0,0-1.16,2.75,4.61,4.61,0,0,0,.41,1.92,7.11,7.11,0,0,0,1.5,2c.41.39,1.71,1.4,3.93,3a22,22,0,0,1,5.41,5.18,8.3,8.3,0,0,1,1.46,4.56,7.71,7.71,0,0,1-2.51,5.74,8.4,8.4,0,0,1-6.1,2.44,8.89,8.89,0,0,1-5-1.48A13.42,13.42,0,0,1,868.32,495.38Z"
        transform="translate(-99 -208)" />
</svg>